<svg xmlns="http://www.w3.org/2000/svg" xmlns:xlink="http://www.w3.org/1999/xlink" width="1920" zoomAndPan="magnify" viewBox="0 0 1440 809.999993" height="1080" preserveAspectRatio="xMidYMid meet" version="1.0"><defs><g/><clipPath id="9e39d34249"><rect x="0" width="915" y="0" height="259"/></clipPath><clipPath id="1a18e49c70"><rect x="0" width="471" y="0" height="358"/></clipPath></defs><g transform="matrix(1, 0, 0, 1, 296, 329)"><g clip-path="url(#9e39d34249)"><g fill="#ffe8e8" fill-opacity="1"><g transform="translate(0.929117, 193.735436)"><g><path d="M 125.984375 -45.515625 L 127.53125 -45.515625 L 127.53125 0 L 7.71875 0 L 7.71875 -1.546875 C 12 -1.546875 15.640625 -3.046875 18.640625 -6.046875 C 21.640625 -9.046875 23.140625 -12.6875 23.140625 -16.96875 L 23.140625 -163 C 23.140625 -167.289062 21.640625 -170.9375 18.640625 -173.9375 C 15.640625 -176.9375 12 -178.4375 7.71875 -178.4375 L 7.71875 -179.984375 L 84.078125 -179.984375 L 84.078125 -178.4375 C 79.785156 -178.4375 76.097656 -176.9375 73.015625 -173.9375 C 69.929688 -170.9375 68.390625 -167.289062 68.390625 -163 L 68.390625 -1.546875 L 69.15625 -1.546875 C 78.25 -1.546875 86.691406 -3.429688 94.484375 -7.203125 C 102.285156 -10.972656 108.96875 -16.195312 114.53125 -22.875 C 120.101562 -29.5625 123.921875 -37.109375 125.984375 -45.515625 Z M 125.984375 -45.515625 "/></g></g></g><g fill="#ffe8e8" fill-opacity="1"><g transform="translate(108.654601, 193.735436)"><g><path d="M 16.96875 -14.140625 L 16.96875 -105.671875 C 16.96875 -108.929688 15.9375 -111.71875 13.875 -114.03125 C 11.820312 -116.34375 9.335938 -117.753906 6.421875 -118.265625 L 6.421875 -119.8125 L 50.390625 -126.234375 C 50.566406 -126.234375 50.695312 -126.234375 50.78125 -126.234375 C 50.863281 -126.234375 50.992188 -126.234375 51.171875 -126.234375 C 54.078125 -126.234375 55.53125 -124.78125 55.53125 -121.875 L 55.53125 -14.140625 C 55.53125 -11.054688 56.554688 -8.3125 58.609375 -5.90625 C 60.671875 -3.507812 63.160156 -2.054688 66.078125 -1.546875 L 66.078125 0 L 6.421875 0 L 6.421875 -1.546875 C 9.335938 -2.054688 11.820312 -3.507812 13.875 -5.90625 C 15.9375 -8.3125 16.96875 -11.054688 16.96875 -14.140625 Z M 56.3125 -159.921875 C 56.3125 -154.609375 54.335938 -149.976562 50.390625 -146.03125 C 46.453125 -142.09375 41.738281 -140.125 36.25 -140.125 C 30.769531 -140.125 26.097656 -142.09375 22.234375 -146.03125 C 18.378906 -149.976562 16.453125 -154.609375 16.453125 -159.921875 C 16.453125 -165.410156 18.378906 -170.125 22.234375 -174.0625 C 26.097656 -178.007812 30.769531 -179.984375 36.25 -179.984375 C 41.738281 -179.984375 46.453125 -178.007812 50.390625 -174.0625 C 54.335938 -170.125 56.3125 -165.410156 56.3125 -159.921875 Z M 56.3125 -159.921875 "/></g></g></g><g fill="#ffe8e8" fill-opacity="1"><g transform="translate(153.645763, 193.735436)"><g><path d="M 102.84375 -126.234375 L 151.6875 -126.234375 L 151.6875 -124.703125 C 147.0625 -124.179688 142.4375 -122.503906 137.8125 -119.671875 C 133.1875 -116.847656 128.988281 -113.421875 125.21875 -109.390625 C 121.445312 -105.367188 118.53125 -101.21875 116.46875 -96.9375 L 61.96875 17.21875 C 59.5625 22.539062 58.488281 27.941406 58.75 33.421875 C 59.007812 38.910156 60.507812 43.835938 63.25 48.203125 C 65.988281 52.578125 69.671875 55.960938 74.296875 58.359375 C 77.734375 59.898438 81.421875 60.671875 85.359375 60.671875 C 88.273438 60.671875 89.734375 59.128906 89.734375 56.046875 C 89.734375 53.816406 88.742188 51.71875 86.765625 49.75 C 84.796875 47.78125 82.78125 45.507812 80.71875 42.9375 C 78.664062 40.363281 77.640625 37.109375 77.640625 33.171875 C 77.640625 27.679688 79.609375 22.960938 83.546875 19.015625 C 87.492188 15.078125 92.125 13.109375 97.4375 13.109375 C 102.925781 13.109375 107.640625 15.078125 111.578125 19.015625 C 115.523438 22.960938 117.5 27.679688 117.5 33.171875 C 117.5 37.960938 116.125 42.457031 113.375 46.65625 C 110.632812 50.863281 107.035156 54.335938 102.578125 57.078125 C 98.128906 59.816406 93.332031 61.484375 88.1875 62.078125 C 83.039062 62.679688 78.15625 61.875 73.53125 59.65625 C 68.5625 57.25 64.660156 53.6875 61.828125 48.96875 C 59.003906 44.257812 57.460938 39.078125 57.203125 33.421875 C 56.953125 27.765625 58.109375 22.195312 60.671875 16.71875 L 68.640625 0 L 13.890625 -114.921875 C 12.679688 -117.328125 10.878906 -119.515625 8.484375 -121.484375 C 6.085938 -123.453125 3.6875 -124.523438 1.28125 -124.703125 L 1.28125 -126.234375 L 45.25 -126.234375 C 49.707031 -126.234375 52.789062 -124.519531 54.5 -121.09375 L 90.5 -45.765625 L 116.46875 -100.265625 C 117.5 -102.671875 118.015625 -105.160156 118.015625 -107.734375 C 118.015625 -112.179688 116.554688 -116.035156 113.640625 -119.296875 C 110.722656 -122.554688 107.125 -124.359375 102.84375 -124.703125 Z M 102.84375 -126.234375 "/></g></g></g><g fill="#ffe8e8" fill-opacity="1"><g transform="translate(279.111687, 193.735436)"><g><path d="M 114.671875 -19.28125 C 114.671875 -16.195312 115.695312 -13.453125 117.75 -11.046875 C 119.8125 -8.648438 122.300781 -7.195312 125.21875 -6.6875 L 125.21875 -5.140625 L 80.984375 1.28125 C 80.984375 1.28125 80.941406 1.28125 80.859375 1.28125 C 80.773438 1.28125 80.644531 1.28125 80.46875 1.28125 C 79.269531 1.28125 78.195312 0.8125 77.25 -0.125 C 76.3125 -1.070312 75.84375 -2.144531 75.84375 -3.34375 L 75.84375 -9.765625 C 72.757812 -7.535156 68.601562 -5.132812 63.375 -2.5625 C 58.144531 0 51.929688 1.28125 44.734375 1.28125 C 36.679688 1.28125 29.394531 -0.859375 22.875 -5.140625 C 16.363281 -9.421875 12.164062 -15.164062 10.28125 -22.375 C 8.226562 -29.738281 9 -36.929688 12.59375 -43.953125 C 16.195312 -50.984375 21.515625 -56.644531 28.546875 -60.9375 C 32.992188 -63.675781 38.644531 -66.285156 45.5 -68.765625 C 52.363281 -71.253906 59.566406 -73.742188 67.109375 -76.234375 C 74.648438 -78.722656 81.71875 -81.296875 88.3125 -83.953125 C 94.914062 -86.609375 100.316406 -89.519531 104.515625 -92.6875 C 108.710938 -95.851562 110.8125 -99.410156 110.8125 -103.359375 C 110.8125 -106.785156 109.3125 -110.210938 106.3125 -113.640625 C 103.3125 -117.066406 99.753906 -119.8125 95.640625 -121.875 C 90.671875 -124.269531 85.1875 -125.894531 79.1875 -126.75 C 73.1875 -127.613281 67.015625 -127.53125 60.671875 -126.5 C 50.898438 -125.125 46.015625 -121.867188 46.015625 -116.734375 C 46.015625 -113.640625 46.957031 -110.976562 48.84375 -108.75 C 50.726562 -106.53125 52.570312 -104.175781 54.375 -101.6875 C 56.175781 -99.195312 57.078125 -95.984375 57.078125 -92.046875 C 57.078125 -86.554688 55.101562 -81.882812 51.15625 -78.03125 C 47.21875 -74.175781 42.507812 -72.25 37.03125 -72.25 C 31.539062 -72.25 26.863281 -74.175781 23 -78.03125 C 19.144531 -81.882812 17.21875 -86.554688 17.21875 -92.046875 C 17.21875 -98.734375 19.53125 -104.601562 24.15625 -109.65625 C 28.789062 -114.707031 34.492188 -118.816406 41.265625 -121.984375 C 48.035156 -125.160156 54.421875 -127.179688 60.421875 -128.046875 C 74.128906 -130.097656 86.128906 -128.46875 96.421875 -123.15625 C 101.390625 -120.757812 105.671875 -117.375 109.265625 -113 C 112.867188 -108.625 114.671875 -103.269531 114.671875 -96.9375 Z M 75.84375 -11.5625 L 75.84375 -77.640625 C 72.414062 -76.097656 68.601562 -74 64.40625 -71.34375 C 60.207031 -68.6875 56.5625 -65.085938 53.46875 -60.546875 C 50.382812 -56.003906 48.585938 -50.132812 48.078125 -42.9375 C 47.734375 -36.769531 48.242188 -31.328125 49.609375 -26.609375 C 50.984375 -21.898438 53.046875 -18.085938 55.796875 -15.171875 C 58.703125 -12.085938 62.082031 -10.203125 65.9375 -9.515625 C 69.800781 -8.828125 73.101562 -9.507812 75.84375 -11.5625 Z M 75.84375 -11.5625 "/></g></g></g><g fill="#ffe8e8" fill-opacity="1"><g transform="translate(383.237647, 193.735436)"><g><path d="M 123.15625 -14.140625 C 123.15625 -11.054688 124.179688 -8.3125 126.234375 -5.90625 C 128.296875 -3.507812 130.785156 -2.054688 133.703125 -1.546875 L 133.703125 0 L 74.046875 0 L 74.046875 -1.546875 C 76.960938 -2.054688 79.445312 -3.507812 81.5 -5.90625 C 83.5625 -8.3125 84.59375 -11.054688 84.59375 -14.140625 L 84.59375 -89.984375 C 84.59375 -94.441406 85.707031 -97.957031 87.9375 -100.53125 C 90.164062 -103.101562 92.390625 -105.546875 94.609375 -107.859375 C 96.835938 -110.171875 97.953125 -112.867188 97.953125 -115.953125 C 97.953125 -118.867188 96.320312 -121.097656 93.0625 -122.640625 C 89.8125 -124.179688 85.613281 -124.953125 80.46875 -124.953125 C 74.8125 -124.953125 69.753906 -124.222656 65.296875 -122.765625 C 60.847656 -121.304688 57.59375 -120.066406 55.53125 -119.046875 L 55.53125 -14.140625 C 55.53125 -11.054688 56.554688 -8.3125 58.609375 -5.90625 C 60.671875 -3.507812 63.160156 -2.054688 66.078125 -1.546875 L 66.078125 0 L 6.421875 0 L 6.421875 -1.546875 C 9.335938 -2.054688 11.820312 -3.507812 13.875 -5.90625 C 15.9375 -8.3125 16.96875 -11.054688 16.96875 -14.140625 L 16.96875 -105.671875 C 16.96875 -108.929688 15.9375 -111.71875 13.875 -114.03125 C 11.820312 -116.34375 9.335938 -117.753906 6.421875 -118.265625 L 6.421875 -119.8125 L 50.390625 -126.234375 C 50.566406 -126.234375 50.695312 -126.234375 50.78125 -126.234375 C 50.863281 -126.234375 50.992188 -126.234375 51.171875 -126.234375 C 54.078125 -126.234375 55.53125 -124.78125 55.53125 -121.875 L 55.53125 -120.84375 C 60.332031 -123.238281 65.6875 -125.164062 71.59375 -126.625 C 77.507812 -128.082031 83.46875 -128.8125 89.46875 -128.8125 C 95.46875 -128.8125 101.039062 -127.65625 106.1875 -125.34375 C 111.332031 -123.03125 115.445312 -119.34375 118.53125 -114.28125 C 121.613281 -109.226562 123.15625 -102.332031 123.15625 -93.59375 Z M 123.15625 -14.140625 "/></g></g></g><g fill="#ffe8e8" fill-opacity="1"><g transform="translate(495.848155, 193.735436)"><g><path d="M 114.671875 -19.28125 C 114.671875 -16.195312 115.695312 -13.453125 117.75 -11.046875 C 119.8125 -8.648438 122.300781 -7.195312 125.21875 -6.6875 L 125.21875 -5.140625 L 80.984375 1.28125 C 80.984375 1.28125 80.941406 1.28125 80.859375 1.28125 C 80.773438 1.28125 80.644531 1.28125 80.46875 1.28125 C 79.269531 1.28125 78.195312 0.8125 77.25 -0.125 C 76.3125 -1.070312 75.84375 -2.144531 75.84375 -3.34375 L 75.84375 -9.765625 C 72.757812 -7.535156 68.601562 -5.132812 63.375 -2.5625 C 58.144531 0 51.929688 1.28125 44.734375 1.28125 C 36.679688 1.28125 29.394531 -0.859375 22.875 -5.140625 C 16.363281 -9.421875 12.164062 -15.164062 10.28125 -22.375 C 8.226562 -29.738281 9 -36.929688 12.59375 -43.953125 C 16.195312 -50.984375 21.515625 -56.644531 28.546875 -60.9375 C 32.992188 -63.675781 38.644531 -66.285156 45.5 -68.765625 C 52.363281 -71.253906 59.566406 -73.742188 67.109375 -76.234375 C 74.648438 -78.722656 81.71875 -81.296875 88.3125 -83.953125 C 94.914062 -86.609375 100.316406 -89.519531 104.515625 -92.6875 C 108.710938 -95.851562 110.8125 -99.410156 110.8125 -103.359375 C 110.8125 -106.785156 109.3125 -110.210938 106.3125 -113.640625 C 103.3125 -117.066406 99.753906 -119.8125 95.640625 -121.875 C 90.671875 -124.269531 85.1875 -125.894531 79.1875 -126.75 C 73.1875 -127.613281 67.015625 -127.53125 60.671875 -126.5 C 50.898438 -125.125 46.015625 -121.867188 46.015625 -116.734375 C 46.015625 -113.640625 46.957031 -110.976562 48.84375 -108.75 C 50.726562 -106.53125 52.570312 -104.175781 54.375 -101.6875 C 56.175781 -99.195312 57.078125 -95.984375 57.078125 -92.046875 C 57.078125 -86.554688 55.101562 -81.882812 51.15625 -78.03125 C 47.21875 -74.175781 42.507812 -72.25 37.03125 -72.25 C 31.539062 -72.25 26.863281 -74.175781 23 -78.03125 C 19.144531 -81.882812 17.21875 -86.554688 17.21875 -92.046875 C 17.21875 -98.734375 19.53125 -104.601562 24.15625 -109.65625 C 28.789062 -114.707031 34.492188 -118.816406 41.265625 -121.984375 C 48.035156 -125.160156 54.421875 -127.179688 60.421875 -128.046875 C 74.128906 -130.097656 86.128906 -128.46875 96.421875 -123.15625 C 101.390625 -120.757812 105.671875 -117.375 109.265625 -113 C 112.867188 -108.625 114.671875 -103.269531 114.671875 -96.9375 Z M 75.84375 -11.5625 L 75.84375 -77.640625 C 72.414062 -76.097656 68.601562 -74 64.40625 -71.34375 C 60.207031 -68.6875 56.5625 -65.085938 53.46875 -60.546875 C 50.382812 -56.003906 48.585938 -50.132812 48.078125 -42.9375 C 47.734375 -36.769531 48.242188 -31.328125 49.609375 -26.609375 C 50.984375 -21.898438 53.046875 -18.085938 55.796875 -15.171875 C 58.703125 -12.085938 62.082031 -10.203125 65.9375 -9.515625 C 69.800781 -8.828125 73.101562 -9.507812 75.84375 -11.5625 Z M 75.84375 -11.5625 "/></g></g></g><g fill="#ffe8e8" fill-opacity="1"><g transform="translate(599.974115, 193.735436)"><g/></g></g><g fill="#ffe8e8" fill-opacity="1"><g transform="translate(644.451048, 193.735436)"><g><path d="M 61.1875 -179.984375 L 137.546875 -179.984375 L 137.546875 -178.4375 C 133.265625 -178.4375 129.625 -176.9375 126.625 -173.9375 C 123.625 -170.9375 122.125 -167.289062 122.125 -163 L 122.125 -50.140625 C 122.125 -40.878906 119.550781 -32.476562 114.40625 -24.9375 C 109.269531 -17.394531 102.457031 -11.351562 93.96875 -6.8125 C 85.488281 -2.269531 76.019531 0 65.5625 0 C 55.101562 0 45.585938 -2.269531 37.015625 -6.8125 C 28.453125 -11.351562 21.640625 -17.394531 16.578125 -24.9375 C 11.523438 -32.476562 9 -40.878906 9 -50.140625 C 9 -57.679688 11.695312 -64.148438 17.09375 -69.546875 C 22.5 -74.941406 28.972656 -77.640625 36.515625 -77.640625 C 44.054688 -77.640625 50.523438 -74.941406 55.921875 -69.546875 C 61.316406 -64.148438 64.015625 -57.679688 64.015625 -50.140625 C 64.015625 -46.023438 63.242188 -42.550781 61.703125 -39.71875 C 60.160156 -36.894531 58.359375 -34.28125 56.296875 -31.875 C 54.242188 -29.476562 52.40625 -27.078125 50.78125 -24.671875 C 49.15625 -22.273438 48.171875 -19.453125 47.828125 -16.203125 C 47.140625 -10.710938 48.851562 -6.894531 52.96875 -4.75 C 57.082031 -2.613281 61.28125 -1.546875 65.5625 -1.546875 C 67.789062 -1.546875 70.617188 -1.757812 74.046875 -2.1875 C 77.472656 -2.613281 80.898438 -3.382812 84.328125 -4.5 C 87.753906 -5.613281 90.664062 -7.15625 93.0625 -9.125 C 95.46875 -11.09375 96.671875 -13.625 96.671875 -16.71875 C 96.671875 -20.144531 95.640625 -23.226562 93.578125 -25.96875 C 91.523438 -28.707031 89.210938 -31.316406 86.640625 -33.796875 C 84.078125 -36.285156 81.765625 -38.859375 79.703125 -41.515625 C 77.648438 -44.179688 76.625 -47.054688 76.625 -50.140625 L 76.625 -163 C 76.625 -167.289062 75.125 -170.9375 72.125 -173.9375 C 69.125 -176.9375 65.476562 -178.4375 61.1875 -178.4375 Z M 61.1875 -179.984375 "/></g></g></g><g fill="#ffe8e8" fill-opacity="1"><g transform="translate(762.203765, 193.735436)"><g><path d="M 146.8125 -49.625 C 147.320312 -42.769531 145.90625 -36.296875 142.5625 -30.203125 C 139.21875 -24.117188 134.375 -18.847656 128.03125 -14.390625 C 121.695312 -9.941406 114.375 -6.429688 106.0625 -3.859375 C 97.75 -1.285156 88.960938 0 79.703125 0 C 67.703125 0 56.601562 -1.96875 46.40625 -5.90625 C 36.207031 -9.851562 28.066406 -15.164062 21.984375 -21.84375 C 15.898438 -28.53125 12.859375 -36.078125 12.859375 -44.484375 C 12.859375 -52.023438 15.554688 -58.492188 20.953125 -63.890625 C 26.347656 -69.285156 32.816406 -71.984375 40.359375 -71.984375 C 47.898438 -71.984375 54.367188 -69.285156 59.765625 -63.890625 C 65.171875 -58.492188 67.875 -52.023438 67.875 -44.484375 C 67.875 -39.679688 67.015625 -35.738281 65.296875 -32.65625 C 63.585938 -29.570312 61.660156 -27 59.515625 -24.9375 C 57.378906 -22.882812 55.582031 -20.914062 54.125 -19.03125 C 52.664062 -17.144531 52.191406 -15 52.703125 -12.59375 C 53.390625 -9.34375 55.960938 -6.6875 60.421875 -4.625 C 64.878906 -2.570312 71.304688 -1.546875 79.703125 -1.546875 C 84.160156 -1.546875 88.359375 -2.613281 92.296875 -4.75 C 96.242188 -6.894531 99.457031 -9.8125 101.9375 -13.5 C 104.425781 -17.1875 105.671875 -21.34375 105.671875 -25.96875 C 105.671875 -32.476562 103.441406 -38.644531 98.984375 -44.46875 C 94.523438 -50.300781 88.78125 -56.003906 81.75 -61.578125 C 74.726562 -67.148438 67.234375 -72.765625 59.265625 -78.421875 C 51.296875 -84.078125 43.796875 -89.988281 36.765625 -96.15625 C 29.734375 -102.332031 23.988281 -108.847656 19.53125 -115.703125 C 15.082031 -122.554688 12.859375 -130.007812 12.859375 -138.0625 C 12.859375 -145.78125 14.914062 -152.296875 19.03125 -157.609375 C 23.144531 -162.921875 28.5 -167.25 35.09375 -170.59375 C 41.695312 -173.9375 48.8125 -176.335938 56.4375 -177.796875 C 64.0625 -179.253906 71.300781 -179.984375 78.15625 -179.984375 C 86.382812 -179.984375 93.582031 -179.378906 99.75 -178.171875 C 105.925781 -176.972656 112.613281 -176.375 119.8125 -176.375 C 122.726562 -176.375 125.34375 -176.628906 127.65625 -177.140625 C 129.96875 -177.660156 131.984375 -178.609375 133.703125 -179.984375 L 135.234375 -179.984375 L 135.234375 -131.390625 C 135.234375 -131.390625 135.0625 -131.390625 134.71875 -131.390625 C 134.382812 -131.390625 134.046875 -131.390625 133.703125 -131.390625 C 132.328125 -138.585938 129.410156 -145.785156 124.953125 -152.984375 C 120.492188 -160.179688 114.835938 -166.175781 107.984375 -170.96875 C 101.128906 -175.769531 93.242188 -178.171875 84.328125 -178.171875 C 77.816406 -178.171875 71.988281 -176.5 66.84375 -173.15625 C 61.707031 -169.820312 58.878906 -164.296875 58.359375 -156.578125 C 57.847656 -149.890625 59.519531 -143.71875 63.375 -138.0625 C 67.226562 -132.40625 72.410156 -126.960938 78.921875 -121.734375 C 85.441406 -116.515625 92.429688 -111.289062 99.890625 -106.0625 C 107.347656 -100.832031 114.503906 -95.390625 121.359375 -89.734375 C 128.210938 -84.078125 133.992188 -77.988281 138.703125 -71.46875 C 143.421875 -64.957031 146.125 -57.675781 146.8125 -49.625 Z M 146.8125 -49.625 "/></g></g></g></g></g><g transform="matrix(1, 0, 0, 1, 82, 119)"><g clip-path="url(#1a18e49c70)"><g fill="#a7ab77" fill-opacity="1"><g transform="translate(96.582411, 256.759718)"><g><path d="M -15.15625 91.3125 C -15.351562 91.394531 -15.53125 91.453125 -15.6875 91.484375 C -15.84375 91.523438 -16.03125 91.5625 -16.25 91.59375 C -16.675781 91.582031 -17.019531 91.492188 -17.28125 91.328125 C -17.550781 91.171875 -17.832031 90.945312 -18.125 90.65625 C -18.519531 90.28125 -18.835938 89.789062 -19.078125 89.1875 C -19.140625 89.03125 -19.207031 88.859375 -19.28125 88.671875 C -19.351562 88.492188 -19.390625 88.320312 -19.390625 88.15625 C -19.691406 86.21875 -19.890625 84.390625 -19.984375 82.671875 C -20.117188 80.128906 -20.132812 77.585938 -20.03125 75.046875 C -19.925781 72.515625 -19.789062 69.976562 -19.625 67.4375 C -19.226562 61.800781 -18.726562 56.191406 -18.125 50.609375 C -17.519531 45.023438 -16.832031 39.429688 -16.0625 33.828125 C -15.125 27.046875 -14.132812 20.300781 -13.09375 13.59375 C -12.0625 6.882812 -11.101562 0.148438 -10.21875 -6.609375 C -9.9375 -8.421875 -9.632812 -10.210938 -9.3125 -11.984375 C -8.988281 -13.753906 -8.753906 -15.554688 -8.609375 -17.390625 C -8.578125 -17.753906 -8.535156 -18.132812 -8.484375 -18.53125 C -8.441406 -18.9375 -8.570312 -19.375 -8.875 -19.84375 C -9.0625 -19.882812 -9.242188 -19.898438 -9.421875 -19.890625 C -9.597656 -19.878906 -9.742188 -19.875 -9.859375 -19.875 C -10.703125 -20.070312 -11.175781 -20.597656 -11.28125 -21.453125 C -11.3125 -21.835938 -11.253906 -22.175781 -11.109375 -22.46875 C -10.960938 -22.757812 -10.828125 -23.046875 -10.703125 -23.328125 C -10.410156 -23.921875 -10.097656 -24.472656 -9.765625 -24.984375 C -9.441406 -25.503906 -9.070312 -25.96875 -8.65625 -26.375 C -7.925781 -27.070312 -7.382812 -27.828125 -7.03125 -28.640625 C -6.6875 -29.453125 -6.460938 -30.320312 -6.359375 -31.25 C -6.179688 -32.851562 -5.925781 -34.425781 -5.59375 -35.96875 C -5.269531 -37.507812 -4.972656 -39.066406 -4.703125 -40.640625 C -4.691406 -40.878906 -4.644531 -41.113281 -4.5625 -41.34375 C -4.476562 -41.582031 -4.398438 -41.832031 -4.328125 -42.09375 C -4.046875 -42.570312 -3.753906 -42.875 -3.453125 -43 C -3.242188 -43.082031 -3.019531 -43.101562 -2.78125 -43.0625 C -1.988281 -42.988281 -1.585938 -42.507812 -1.578125 -41.625 C -1.554688 -41.394531 -1.550781 -41.15625 -1.5625 -40.90625 C -1.582031 -40.664062 -1.601562 -40.425781 -1.625 -40.1875 L -2.390625 -34.140625 L -2.515625 -32.875 C -2.273438 -33.03125 -2.078125 -33.132812 -1.921875 -33.1875 C -1.773438 -33.25 -1.632812 -33.332031 -1.5 -33.4375 C -0.03125 -34.488281 1.390625 -35.523438 2.765625 -36.546875 C 4.148438 -37.566406 5.609375 -38.53125 7.140625 -39.4375 C 7.804688 -39.832031 8.457031 -40.210938 9.09375 -40.578125 C 9.738281 -40.953125 10.390625 -41.269531 11.046875 -41.53125 C 11.460938 -41.695312 11.882812 -41.832031 12.3125 -41.9375 C 12.738281 -42.050781 13.148438 -42.132812 13.546875 -42.1875 C 13.972656 -42.289062 14.390625 -42.347656 14.796875 -42.359375 C 15.203125 -42.367188 15.617188 -42.34375 16.046875 -42.28125 C 17.097656 -42.175781 18 -41.800781 18.75 -41.15625 C 19.5 -40.519531 19.941406 -39.671875 20.078125 -38.609375 C 20.265625 -37.554688 20.300781 -36.445312 20.1875 -35.28125 C 20.082031 -34.195312 19.910156 -33.132812 19.671875 -32.09375 C 19.441406 -31.0625 19.140625 -30.0625 18.765625 -29.09375 C 18.160156 -27.488281 17.503906 -25.910156 16.796875 -24.359375 C 16.085938 -22.816406 15.359375 -21.285156 14.609375 -19.765625 C 12.910156 -16.367188 11.054688 -13.050781 9.046875 -9.8125 C 7.046875 -6.582031 4.957031 -3.414062 2.78125 -0.3125 C 1.40625 1.695312 -0.0195312 3.6875 -1.5 5.65625 C -2.976562 7.632812 -4.46875 9.597656 -5.96875 11.546875 C -6.257812 11.890625 -6.5625 12.257812 -6.875 12.65625 C -7.1875 13.050781 -7.515625 13.398438 -7.859375 13.703125 C -8.148438 14.003906 -8.546875 14.253906 -9.046875 14.453125 L -9.21875 14.515625 C -9.8125 14.753906 -10.210938 14.625 -10.421875 14.125 L -10.5 13.890625 C -10.6875 13.429688 -10.609375 13.046875 -10.265625 12.734375 C -7.898438 10.429688 -5.8125 7.9375 -4 5.25 C -2.1875 2.5625 -0.363281 -0.0859375 1.46875 -2.703125 C 3.363281 -5.335938 5.140625 -8.039062 6.796875 -10.8125 C 8.460938 -13.59375 10.050781 -16.40625 11.5625 -19.25 C 12.644531 -21.382812 13.640625 -23.53125 14.546875 -25.6875 C 15.453125 -27.851562 16.195312 -30.046875 16.78125 -32.265625 C 16.96875 -32.984375 17.109375 -33.695312 17.203125 -34.40625 C 17.296875 -35.125 17.398438 -35.859375 17.515625 -36.609375 C 17.640625 -37.359375 17.570312 -38.066406 17.3125 -38.734375 L 17.234375 -38.890625 C 17.015625 -39.441406 16.570312 -39.738281 15.90625 -39.78125 C 15.300781 -39.820312 14.710938 -39.757812 14.140625 -39.59375 C 13.804688 -39.507812 13.492188 -39.425781 13.203125 -39.34375 C 12.921875 -39.257812 12.625 -39.15625 12.3125 -39.03125 C 11.351562 -38.644531 10.398438 -38.179688 9.453125 -37.640625 C 7.347656 -36.390625 5.300781 -35.054688 3.3125 -33.640625 C 1.320312 -32.222656 -0.570312 -30.664062 -2.375 -28.96875 C -2.789062 -28.550781 -3.144531 -28.117188 -3.4375 -27.671875 C -3.738281 -27.234375 -3.945312 -26.734375 -4.0625 -26.171875 C -4.175781 -25.523438 -4.347656 -24.90625 -4.578125 -24.3125 C -4.816406 -23.726562 -4.953125 -23.109375 -4.984375 -22.453125 C -5.066406 -21.484375 -5.195312 -20.519531 -5.375 -19.5625 C -5.550781 -18.601562 -5.738281 -17.648438 -5.9375 -16.703125 C -6.132812 -15.722656 -6.320312 -14.753906 -6.5 -13.796875 C -6.6875 -12.847656 -6.859375 -11.90625 -7.015625 -10.96875 C -7.203125 -9.945312 -7.382812 -8.972656 -7.5625 -8.046875 C -7.75 -7.128906 -7.914062 -6.171875 -8.0625 -5.171875 C -8.1875 -4.179688 -8.335938 -3.207031 -8.515625 -2.25 C -8.691406 -1.300781 -8.863281 -0.347656 -9.03125 0.609375 C -10.519531 9.722656 -11.929688 18.832031 -13.265625 27.9375 C -14.597656 37.050781 -15.675781 46.1875 -16.5 55.34375 C -16.820312 59.113281 -17.140625 62.882812 -17.453125 66.65625 C -17.773438 70.425781 -17.941406 74.226562 -17.953125 78.0625 C -17.960938 79.476562 -17.960938 80.875 -17.953125 82.25 C -17.941406 83.625 -17.800781 85.023438 -17.53125 86.453125 C -17.425781 86.828125 -17.3125 87.207031 -17.1875 87.59375 C -17.0625 87.976562 -16.921875 88.375 -16.765625 88.78125 C -16.535156 89.34375 -16.164062 89.460938 -15.65625 89.140625 L -14.375 88.359375 C -14.164062 88.285156 -13.984375 88.289062 -13.828125 88.375 C -13.679688 88.457031 -13.503906 88.546875 -13.296875 88.640625 C -13.210938 88.671875 -13.15625 88.734375 -13.125 88.828125 C -13 89.140625 -13.03125 89.425781 -13.21875 89.6875 C -13.789062 90.488281 -14.4375 91.03125 -15.15625 91.3125 Z M -15.15625 91.3125 "/></g></g></g><g fill="#a7ab77" fill-opacity="1"><g transform="translate(131.062916, 243.025677)"><g><path d="M -0.65625 -6.09375 C -0.863281 -6.007812 -1.050781 -5.945312 -1.21875 -5.90625 C -1.382812 -5.875 -1.578125 -5.835938 -1.796875 -5.796875 C -4.378906 -5.367188 -6.269531 -6.648438 -7.46875 -9.640625 C -7.644531 -10.085938 -7.78125 -10.539062 -7.875 -11 C -7.96875 -11.46875 -8.066406 -11.914062 -8.171875 -12.34375 C -8.890625 -15.894531 -8.914062 -19.300781 -8.25 -22.5625 C -7.582031 -25.820312 -6.316406 -28.96875 -4.453125 -32 C -3.910156 -32.863281 -3.300781 -33.664062 -2.625 -34.40625 C -1.957031 -35.144531 -1.238281 -35.816406 -0.46875 -36.421875 C 0.03125 -36.785156 0.53125 -37.066406 1.03125 -37.265625 C 2.34375 -37.796875 3.507812 -37.851562 4.53125 -37.4375 C 5.550781 -37.019531 6.273438 -36.28125 6.703125 -35.21875 C 6.898438 -34.707031 7.066406 -34.195312 7.203125 -33.6875 C 7.347656 -33.1875 7.40625 -32.691406 7.375 -32.203125 C 7.363281 -31.628906 7.335938 -31.019531 7.296875 -30.375 C 7.253906 -29.738281 7.195312 -29.140625 7.125 -28.578125 C 6.25 -22.835938 4.453125 -17.25 1.734375 -11.8125 C 1.515625 -11.3125 1.21875 -10.796875 0.84375 -10.265625 C 0.46875 -9.734375 0.132812 -9.175781 -0.15625 -8.59375 L 0.359375 -8.34375 C 0.648438 -8.226562 0.835938 -8.066406 0.921875 -7.859375 C 1.066406 -7.503906 0.96875 -7.171875 0.625 -6.859375 C 0.320312 -6.566406 -0.101562 -6.3125 -0.65625 -6.09375 Z M -2.46875 -10.140625 L -2.125 -10.4375 C -1.78125 -10.75 -1.515625 -11.101562 -1.328125 -11.5 C -1.140625 -11.90625 -0.925781 -12.273438 -0.6875 -12.609375 C 0.875 -15.171875 2.0625 -17.890625 2.875 -20.765625 C 3.695312 -23.648438 4.285156 -26.578125 4.640625 -29.546875 C 4.734375 -30.054688 4.796875 -30.566406 4.828125 -31.078125 C 4.859375 -31.585938 4.8125 -32.078125 4.6875 -32.546875 C 4.625 -32.828125 4.570312 -33.085938 4.53125 -33.328125 C 4.5 -33.578125 4.429688 -33.832031 4.328125 -34.09375 L 4.234375 -34.3125 C 3.910156 -35.125 3.316406 -35.359375 2.453125 -35.015625 C 1.992188 -34.828125 1.582031 -34.601562 1.21875 -34.34375 C 0.851562 -34.082031 0.492188 -33.800781 0.140625 -33.5 C -0.328125 -33.070312 -0.742188 -32.585938 -1.109375 -32.046875 C -1.484375 -31.515625 -1.863281 -30.972656 -2.25 -30.421875 C -3.820312 -28.023438 -4.753906 -25.460938 -5.046875 -22.734375 C -5.335938 -20.003906 -5.59375 -17.210938 -5.8125 -14.359375 C -5.832031 -14.285156 -5.8125 -14.203125 -5.75 -14.109375 C -5.6875 -14.015625 -5.632812 -13.859375 -5.59375 -13.640625 C -5.476562 -14.222656 -5.375 -14.796875 -5.28125 -15.359375 C -5.1875 -15.929688 -5.101562 -16.429688 -5.03125 -16.859375 C -4.84375 -18.003906 -4.515625 -19.109375 -4.046875 -20.171875 C -3.585938 -21.234375 -3.265625 -22.332031 -3.078125 -23.46875 C -2.960938 -24.039062 -2.734375 -24.484375 -2.390625 -24.796875 C -2.304688 -24.898438 -2.171875 -25.015625 -1.984375 -25.140625 C -1.796875 -25.265625 -1.601562 -25.367188 -1.40625 -25.453125 C -0.539062 -25.796875 0.0507812 -25.5625 0.375 -24.75 C 0.632812 -24.09375 0.597656 -23.375 0.265625 -22.59375 L -1.03125 -19.4375 C -1.15625 -19.15625 -1.28125 -18.878906 -1.40625 -18.609375 C -1.539062 -18.347656 -1.613281 -18.070312 -1.625 -17.78125 C -1.9375 -16.664062 -2.164062 -15.546875 -2.3125 -14.421875 C -2.457031 -13.304688 -2.578125 -12.140625 -2.671875 -10.921875 C -2.691406 -10.804688 -2.71875 -10.679688 -2.75 -10.546875 C -2.78125 -10.421875 -2.6875 -10.285156 -2.46875 -10.140625 Z M -2.46875 -10.140625 "/></g></g></g><g fill="#a7ab77" fill-opacity="1"><g transform="translate(158.540758, 232.080889)"><g><path d="M 23.859375 -42.40625 C 24.398438 -41.488281 24.640625 -40.523438 24.578125 -39.515625 C 24.484375 -38.835938 24.164062 -38.359375 23.625 -38.078125 C 23.28125 -37.929688 22.953125 -37.957031 22.640625 -38.15625 C 22.328125 -38.363281 22.117188 -38.65625 22.015625 -39.03125 C 22.035156 -39.144531 22.050781 -39.265625 22.0625 -39.390625 C 22.070312 -39.515625 22.082031 -39.632812 22.09375 -39.75 C 22.082031 -39.914062 22.0625 -40.066406 22.03125 -40.203125 C 22 -40.347656 21.941406 -40.523438 21.859375 -40.734375 C 21.742188 -41.203125 21.554688 -41.53125 21.296875 -41.71875 C 21.046875 -41.914062 20.625 -41.957031 20.03125 -41.84375 C 19.457031 -41.914062 18.890625 -41.773438 18.328125 -41.421875 C 17.367188 -41.046875 16.46875 -40.585938 15.625 -40.046875 C 14.78125 -39.503906 13.9375 -38.890625 13.09375 -38.203125 C 11.914062 -37.203125 10.796875 -36.132812 9.734375 -35 C 8.679688 -33.875 7.679688 -32.71875 6.734375 -31.53125 C 2.960938 -26.726562 -0.332031 -21.675781 -3.15625 -16.375 C -5.988281 -11.070312 -8.191406 -5.4375 -9.765625 0.53125 L -10.3125 2.25 C -10.289062 2.425781 -10.34375 2.582031 -10.46875 2.71875 C -10.59375 2.851562 -10.707031 3.003906 -10.8125 3.171875 C -11.125 3.398438 -11.457031 3.484375 -11.8125 3.421875 C -12.164062 3.367188 -12.4375 3.171875 -12.625 2.828125 C -12.75 2.523438 -12.789062 2.128906 -12.75 1.640625 C -12.695312 1.316406 -12.644531 0.96875 -12.59375 0.59375 C -12.539062 0.226562 -12.457031 -0.0976562 -12.34375 -0.390625 C -11.695312 -4.109375 -11.019531 -7.8125 -10.3125 -11.5 C -9.613281 -15.195312 -8.910156 -18.890625 -8.203125 -22.578125 C -8.128906 -22.710938 -8.09375 -22.882812 -8.09375 -23.09375 C -8.09375 -23.3125 -8.070312 -23.507812 -8.03125 -23.6875 C -7.957031 -24.257812 -7.890625 -24.832031 -7.828125 -25.40625 C -7.765625 -25.988281 -7.664062 -26.546875 -7.53125 -27.078125 C -7.289062 -28.109375 -7.023438 -29.109375 -6.734375 -30.078125 C -6.441406 -31.046875 -6.179688 -31.988281 -5.953125 -32.90625 C -5.921875 -33.09375 -5.875 -33.289062 -5.8125 -33.5 C -5.75 -33.707031 -5.65625 -33.890625 -5.53125 -34.046875 C -5.238281 -34.628906 -4.75 -34.878906 -4.0625 -34.796875 C -3.394531 -34.597656 -3.023438 -34.1875 -2.953125 -33.5625 C -2.929688 -33.34375 -2.914062 -33.082031 -2.90625 -32.78125 C -2.90625 -32.488281 -2.9375 -32.191406 -3 -31.890625 C -3.28125 -30.828125 -3.546875 -29.71875 -3.796875 -28.5625 C -4.046875 -27.414062 -4.300781 -26.285156 -4.5625 -25.171875 C -4.707031 -24.523438 -4.765625 -24.003906 -4.734375 -23.609375 C -4.734375 -23.484375 -4.738281 -23.359375 -4.75 -23.234375 C -4.769531 -23.117188 -4.78125 -23 -4.78125 -22.875 C -5.5625 -20.21875 -6.269531 -17.5625 -6.90625 -14.90625 C -6.957031 -14.882812 -6.972656 -14.84375 -6.953125 -14.78125 C -6.929688 -14.726562 -6.929688 -14.671875 -6.953125 -14.609375 C -6.828125 -14.546875 -6.765625 -14.515625 -6.765625 -14.515625 C -6.609375 -14.734375 -6.476562 -14.9375 -6.375 -15.125 C -6.28125 -15.320312 -6.210938 -15.515625 -6.171875 -15.703125 C -4.460938 -18.972656 -2.632812 -22.140625 -0.6875 -25.203125 C 1.257812 -28.273438 3.441406 -31.207031 5.859375 -34 C 6.890625 -35.226562 7.953125 -36.425781 9.046875 -37.59375 C 10.148438 -38.769531 11.378906 -39.863281 12.734375 -40.875 C 13.554688 -41.488281 14.40625 -42.0625 15.28125 -42.59375 C 16.15625 -43.125 17.082031 -43.554688 18.0625 -43.890625 C 18.46875 -44.046875 18.851562 -44.140625 19.21875 -44.171875 C 19.59375 -44.210938 19.976562 -44.242188 20.375 -44.265625 C 21.882812 -44.347656 23.046875 -43.726562 23.859375 -42.40625 Z M 23.859375 -42.40625 "/></g></g></g><g fill="#a7ab77" fill-opacity="1"><g transform="translate(194.54358, 217.740489)"><g><path d="M 75.421875 -137.71875 C 76.109375 -137.882812 76.578125 -137.664062 76.828125 -137.0625 L 76.859375 -136.96875 C 77.035156 -136.507812 76.90625 -136.023438 76.46875 -135.515625 C 76.332031 -135.398438 76.1875 -135.28125 76.03125 -135.15625 C 75.882812 -135.039062 75.769531 -134.9375 75.6875 -134.84375 C 74.863281 -134.101562 73.921875 -133.472656 72.859375 -132.953125 C 71.796875 -132.441406 70.734375 -131.976562 69.671875 -131.5625 C 68.453125 -131.070312 67.71875 -130.867188 67.46875 -130.953125 C 67.226562 -131.035156 66.765625 -131.347656 66.078125 -131.890625 L 64.71875 -131.34375 C 63 -130.65625 61.289062 -129.960938 59.59375 -129.265625 C 57.90625 -128.566406 56.207031 -127.847656 54.5 -127.109375 L 22.15625 -113.328125 C 20.5 -112.609375 18.851562 -111.894531 17.21875 -111.1875 C 15.582031 -110.488281 13.90625 -109.796875 12.1875 -109.109375 L 11.125 -108.6875 C 11.007812 -108.40625 10.910156 -108.070312 10.828125 -107.6875 C 9.566406 -101.832031 8.210938 -96.03125 6.765625 -90.28125 C 5.328125 -84.53125 3.882812 -78.75 2.4375 -72.9375 C 1.863281 -70.53125 1.375 -68.097656 0.96875 -65.640625 C 0.5625 -63.191406 0.03125 -60.8125 -0.625 -58.5 C -0.707031 -58.226562 -0.820312 -57.664062 -0.96875 -56.8125 C -1.125 -55.957031 -1.265625 -55.125 -1.390625 -54.3125 C -1.515625 -53.5 -1.601562 -52.929688 -1.65625 -52.609375 C -2.9375 -42.398438 -4.296875 -32.21875 -5.734375 -22.0625 C -7.179688 -11.90625 -8.1875 -1.617188 -8.75 8.796875 C -9.007812 13.179688 -9.359375 17.546875 -9.796875 21.890625 C -10.234375 26.242188 -10.460938 30.628906 -10.484375 35.046875 C -10.460938 35.679688 -10.460938 36.34375 -10.484375 37.03125 C -10.503906 37.71875 -10.503906 38.375 -10.484375 39 C -10.453125 39.53125 -10.664062 39.890625 -11.125 40.078125 C -11.726562 40.316406 -12.148438 40.128906 -12.390625 39.515625 C -12.515625 39.203125 -12.582031 38.882812 -12.59375 38.5625 C -12.601562 38.25 -12.601562 37.941406 -12.59375 37.640625 L -12.234375 31.0625 C -11.835938 24.375 -11.421875 17.664062 -10.984375 10.9375 C -10.554688 4.21875 -10.019531 -2.476562 -9.375 -9.15625 C -8.675781 -16.125 -7.835938 -23.109375 -6.859375 -30.109375 C -5.890625 -37.109375 -4.921875 -44.101562 -3.953125 -51.09375 C -3.773438 -52.144531 -3.617188 -53.195312 -3.484375 -54.25 C -3.347656 -55.3125 -3.226562 -56.394531 -3.125 -57.5 C -2.957031 -59.4375 -2.65625 -61.460938 -2.21875 -63.578125 C -1.59375 -66.304688 -1.054688 -69.023438 -0.609375 -71.734375 C -0.160156 -74.441406 0.265625 -77.132812 0.671875 -79.8125 L 4.59375 -104.046875 C 4.644531 -104.367188 4.707031 -104.660156 4.78125 -104.921875 C 4.851562 -105.191406 4.929688 -105.515625 5.015625 -105.890625 C 4.785156 -105.867188 4.613281 -105.847656 4.5 -105.828125 C 4.394531 -105.816406 4.289062 -105.789062 4.1875 -105.75 L -6.734375 -101.03125 C -8.035156 -100.46875 -9.34375 -99.878906 -10.65625 -99.265625 C -11.96875 -98.648438 -13.269531 -98.054688 -14.5625 -97.484375 L -24.46875 -93.109375 C -25.90625 -92.453125 -27.347656 -91.765625 -28.796875 -91.046875 C -30.253906 -90.328125 -31.722656 -89.671875 -33.203125 -89.078125 C -33.703125 -88.878906 -34.179688 -88.660156 -34.640625 -88.421875 C -35.109375 -88.179688 -35.59375 -87.960938 -36.09375 -87.765625 C -38.175781 -86.929688 -40.238281 -86.0625 -42.28125 -85.15625 C -44.332031 -84.25 -46.425781 -83.375 -48.5625 -82.53125 C -49.570312 -82.125 -50.617188 -81.796875 -51.703125 -81.546875 C -52.148438 -81.484375 -52.59375 -81.523438 -53.03125 -81.671875 C -53.46875 -81.816406 -53.757812 -82.066406 -53.90625 -82.421875 L -54.0625 -82.8125 C -54.34375 -83.507812 -54.164062 -84.164062 -53.53125 -84.78125 C -52.707031 -85.519531 -51.890625 -86.050781 -51.078125 -86.375 C -50.515625 -86.601562 -49.9375 -86.789062 -49.34375 -86.9375 C -48.757812 -87.082031 -48.21875 -87.257812 -47.71875 -87.46875 C -47.40625 -87.582031 -47.179688 -87.601562 -47.046875 -87.53125 C -46.617188 -87.363281 -46.203125 -87.359375 -45.796875 -87.515625 C -45.390625 -87.679688 -45.007812 -87.832031 -44.65625 -87.96875 L -29.75 -94.421875 C -29.601562 -94.472656 -29.457031 -94.539062 -29.3125 -94.625 C -29.164062 -94.71875 -29.019531 -94.796875 -28.875 -94.859375 C -23.34375 -97.054688 -17.859375 -99.375 -12.421875 -101.8125 C -6.984375 -104.25 -1.5 -106.570312 4.03125 -108.78125 L 5.625 -109.421875 C 5.738281 -109.742188 5.804688 -110.054688 5.828125 -110.359375 C 5.847656 -110.660156 5.875 -111 5.90625 -111.375 C 6.21875 -114.613281 6.832031 -117.796875 7.75 -120.921875 C 8.675781 -124.054688 9.410156 -127.226562 9.953125 -130.4375 C 10.140625 -131.457031 10.398438 -132.472656 10.734375 -133.484375 C 11.066406 -134.492188 11.320312 -135.503906 11.5 -136.515625 C 11.5625 -136.828125 11.660156 -137.101562 11.796875 -137.34375 C 11.941406 -137.582031 12.050781 -137.832031 12.125 -138.09375 C 12.132812 -138.332031 12.273438 -138.625 12.546875 -138.96875 C 12.785156 -139.25 13.007812 -139.425781 13.21875 -139.5 C 13.476562 -139.601562 13.773438 -139.609375 14.109375 -139.515625 C 14.492188 -139.421875 14.789062 -139.117188 15 -138.609375 C 15.175781 -138.148438 15.265625 -137.546875 15.265625 -136.796875 C 15.285156 -136.328125 15.28125 -135.796875 15.25 -135.203125 C 15.226562 -134.609375 15.171875 -134.054688 15.078125 -133.546875 C 14.679688 -130.265625 14.203125 -127 13.640625 -123.75 C 13.085938 -120.507812 12.582031 -117.234375 12.125 -113.921875 L 11.90625 -112.265625 C 12.082031 -112.109375 12.234375 -112.050781 12.359375 -112.09375 C 12.484375 -112.144531 12.601562 -112.191406 12.71875 -112.234375 L 24.578125 -117.21875 C 25.722656 -117.738281 26.882812 -118.21875 28.0625 -118.65625 C 29.238281 -119.09375 30.367188 -119.554688 31.453125 -120.046875 L 44.859375 -125.640625 C 48.523438 -127.222656 52.175781 -128.796875 55.8125 -130.359375 C 59.445312 -131.929688 63.117188 -133.457031 66.828125 -134.9375 C 67.941406 -135.375 69.039062 -135.820312 70.125 -136.28125 C 71.207031 -136.738281 72.335938 -137.113281 73.515625 -137.40625 C 73.828125 -137.476562 74.140625 -137.53125 74.453125 -137.5625 C 74.765625 -137.59375 75.085938 -137.644531 75.421875 -137.71875 Z M 9.4375 -112.234375 C 9.894531 -114.953125 10.382812 -117.648438 10.90625 -120.328125 C 11.425781 -123.003906 11.859375 -125.675781 12.203125 -128.34375 C 12.171875 -128.4375 12.164062 -128.488281 12.1875 -128.5 C 12.21875 -128.507812 12.21875 -128.546875 12.1875 -128.609375 L 12.109375 -128.828125 L 11.953125 -128.765625 L 12.015625 -128.609375 L 12.203125 -128.34375 C 12.148438 -128.320312 12.09375 -128.328125 12.03125 -128.359375 C 11.96875 -128.390625 11.898438 -128.335938 11.828125 -128.203125 C 11.765625 -128.054688 11.726562 -127.921875 11.71875 -127.796875 C 11.707031 -127.671875 11.695312 -127.550781 11.6875 -127.4375 L 8.328125 -111.09375 L 8.328125 -110.390625 C 8.535156 -110.585938 8.695312 -110.722656 8.8125 -110.796875 C 8.9375 -110.878906 9.066406 -110.976562 9.203125 -111.09375 C 9.265625 -111.238281 9.3125 -111.40625 9.34375 -111.59375 C 9.382812 -111.78125 9.414062 -111.992188 9.4375 -112.234375 Z M 8.1875 -106.546875 L 8.21875 -107.359375 C 8.125 -107.316406 8.003906 -107.28125 7.859375 -107.25 C 7.710938 -107.21875 7.628906 -107.171875 7.609375 -107.109375 C 7.515625 -106.890625 7.46875 -106.707031 7.46875 -106.5625 C 7.476562 -106.414062 7.457031 -106.242188 7.40625 -106.046875 L 6.140625 -99.71875 C 6.191406 -99.738281 6.25 -99.75 6.3125 -99.75 C 6.375 -99.75 6.429688 -99.757812 6.484375 -99.78125 C 6.679688 -99.863281 6.78125 -100.046875 6.78125 -100.328125 Z M 8.1875 -106.546875 "/></g></g></g><g fill="#a7ab77" fill-opacity="1"><g transform="translate(209.766758, 211.676897)"><g><path d="M -9.078125 98.34375 C -10.347656 98.84375 -11.519531 98.546875 -12.59375 97.453125 C -12.800781 97.242188 -12.992188 96.984375 -13.171875 96.671875 C -13.347656 96.359375 -13.53125 96.0625 -13.71875 95.78125 C -14.21875 94.800781 -14.609375 93.765625 -14.890625 92.671875 C -15.179688 91.578125 -15.429688 90.484375 -15.640625 89.390625 C -15.960938 87.398438 -16.175781 85.382812 -16.28125 83.34375 C -16.394531 81.300781 -16.472656 79.265625 -16.515625 77.234375 C -16.617188 71.390625 -16.570312 65.53125 -16.375 59.65625 C -16.1875 53.789062 -15.816406 47.929688 -15.265625 42.078125 C -14.898438 38.265625 -14.59375 34.441406 -14.34375 30.609375 C -14.101562 26.785156 -13.660156 22.957031 -13.015625 19.125 C -12.878906 18.289062 -12.992188 17.421875 -13.359375 16.515625 C -13.578125 15.953125 -13.769531 15.425781 -13.9375 14.9375 C -14.101562 14.457031 -14.363281 13.992188 -14.71875 13.546875 C -14.875 13.296875 -15.035156 13.070312 -15.203125 12.875 C -15.367188 12.6875 -15.617188 12.539062 -15.953125 12.4375 C -16.453125 12.226562 -16.742188 12.019531 -16.828125 11.8125 C -16.941406 11.519531 -16.78125 11.101562 -16.34375 10.5625 C -15.644531 9.644531 -14.9375 8.71875 -14.21875 7.78125 C -13.507812 6.84375 -12.773438 5.988281 -12.015625 5.21875 C -11.691406 4.863281 -11.4375 4.472656 -11.25 4.046875 C -11.070312 3.617188 -10.941406 3.148438 -10.859375 2.640625 L -4.046875 -43.375 C -3.660156 -45.9375 -3.179688 -48.535156 -2.609375 -51.171875 C -2.035156 -53.804688 -1.46875 -56.410156 -0.90625 -58.984375 C -0.800781 -59.453125 -0.679688 -59.882812 -0.546875 -60.28125 C -0.421875 -60.6875 -0.304688 -61.117188 -0.203125 -61.578125 C -0.015625 -62.171875 0.226562 -62.679688 0.53125 -63.109375 C 0.726562 -63.347656 0.984375 -63.53125 1.296875 -63.65625 C 2.359375 -64.082031 3.097656 -63.765625 3.515625 -62.703125 C 3.578125 -62.546875 3.640625 -62.390625 3.703125 -62.234375 C 3.765625 -62.085938 3.800781 -61.929688 3.8125 -61.765625 C 4.113281 -59.359375 4.15625 -57.023438 3.9375 -54.765625 C 3.925781 -54.515625 3.890625 -54.234375 3.828125 -53.921875 C 3.773438 -53.609375 3.664062 -53.296875 3.5 -52.984375 C 3.289062 -52.617188 3.003906 -52.300781 2.640625 -52.03125 C 2.191406 -51.675781 1.644531 -51.804688 1 -52.421875 L 0.578125 -52.796875 C 0.378906 -52.253906 0.210938 -51.628906 0.078125 -50.921875 C -1.234375 -44.816406 -2.40625 -38.660156 -3.4375 -32.453125 C -4.46875 -26.253906 -5.421875 -20.039062 -6.296875 -13.8125 L -8.046875 -1.5625 C -8.109375 -1.289062 -8.140625 -1.007812 -8.140625 -0.71875 C -8.140625 -0.425781 -8.164062 -0.128906 -8.21875 0.171875 C -8.09375 0.191406 -7.957031 0.175781 -7.8125 0.125 C -7.707031 0.0820312 -7.601562 0 -7.5 -0.125 C -7.40625 -0.257812 -7.347656 -0.363281 -7.328125 -0.4375 C -4.765625 -3.332031 -2.238281 -6.257812 0.25 -9.21875 C 2.738281 -12.1875 5.203125 -15.1875 7.640625 -18.21875 C 8.929688 -19.851562 10.210938 -21.507812 11.484375 -23.1875 C 12.753906 -24.863281 14.128906 -26.4375 15.609375 -27.90625 C 15.816406 -28.125 16.035156 -28.347656 16.265625 -28.578125 C 16.492188 -28.816406 16.703125 -29.066406 16.890625 -29.328125 C 16.984375 -29.410156 17.15625 -29.5 17.40625 -29.59375 C 17.65625 -29.695312 17.925781 -29.75 18.21875 -29.75 C 18.507812 -29.75 18.71875 -29.59375 18.84375 -29.28125 L 18.984375 -28.90625 C 19.191406 -28.40625 19.109375 -27.898438 18.734375 -27.390625 C 18.285156 -26.867188 17.828125 -26.347656 17.359375 -25.828125 C 16.890625 -25.316406 16.445312 -24.835938 16.03125 -24.390625 C 15.15625 -23.335938 14.269531 -22.304688 13.375 -21.296875 C 12.488281 -20.296875 11.59375 -19.234375 10.6875 -18.109375 C 8.007812 -14.804688 5.3125 -11.539062 2.59375 -8.3125 C -0.113281 -5.082031 -2.84375 -1.832031 -5.59375 1.4375 L -8.296875 4.625 C -8.753906 5.113281 -9.023438 5.691406 -9.109375 6.359375 L -10.390625 15.96875 C -10.460938 16.394531 -10.460938 16.769531 -10.390625 17.09375 C -10.316406 17.414062 -10.210938 17.753906 -10.078125 18.109375 L -6.71875 25.4375 C -5.039062 29.0625 -3.71875 32.78125 -2.75 36.59375 C -1.78125 40.414062 -1.085938 44.328125 -0.671875 48.328125 C -0.128906 53.992188 0.0507812 59.671875 -0.125 65.359375 C -0.300781 71.046875 -0.941406 76.695312 -2.046875 82.3125 C -2.335938 83.78125 -2.664062 85.234375 -3.03125 86.671875 C -3.40625 88.117188 -3.847656 89.535156 -4.359375 90.921875 C -4.617188 91.597656 -4.90625 92.28125 -5.21875 92.96875 C -5.53125 93.65625 -5.84375 94.347656 -6.15625 95.046875 C -6.375 95.546875 -6.625 96.015625 -6.90625 96.453125 C -7.195312 96.898438 -7.546875 97.289062 -7.953125 97.625 C -8.347656 97.957031 -8.722656 98.195312 -9.078125 98.34375 Z M -12.203125 12.546875 C -12.128906 11.984375 -12.054688 11.460938 -11.984375 10.984375 C -11.910156 10.515625 -11.921875 10.003906 -12.015625 9.453125 L -12.328125 9.578125 C -12.578125 9.679688 -12.765625 9.832031 -12.890625 10.03125 C -13.023438 10.226562 -13.140625 10.410156 -13.234375 10.578125 C -13.222656 10.796875 -13.191406 11 -13.140625 11.1875 C -13.097656 11.375 -13.054688 11.519531 -13.015625 11.625 C -12.921875 11.875 -12.648438 12.179688 -12.203125 12.546875 Z M -9.96875 95.859375 C -9.71875 95.765625 -9.523438 95.660156 -9.390625 95.546875 C -8.992188 95.210938 -8.65625 94.726562 -8.375 94.09375 C -8.039062 93.320312 -7.710938 92.5625 -7.390625 91.8125 C -7.078125 91.0625 -6.789062 90.28125 -6.53125 89.46875 C -5.96875 87.90625 -5.507812 86.347656 -5.15625 84.796875 C -4.8125 83.242188 -4.507812 81.679688 -4.25 80.109375 C -3.445312 75.203125 -2.914062 70.300781 -2.65625 65.40625 C -2.40625 60.507812 -2.457031 55.628906 -2.8125 50.765625 C -3.125 46.546875 -3.789062 42.445312 -4.8125 38.46875 C -5.832031 34.5 -7.132812 30.535156 -8.71875 26.578125 C -9 25.878906 -9.304688 25.148438 -9.640625 24.390625 C -9.972656 23.640625 -10.304688 22.921875 -10.640625 22.234375 L -10.96875 22.28125 C -11.03125 22.414062 -11.097656 22.675781 -11.171875 23.0625 C -11.554688 28.726562 -12.007812 34.191406 -12.53125 39.453125 C -13.0625 44.722656 -13.5 49.910156 -13.84375 55.015625 C -14.1875 60.128906 -14.316406 65.375 -14.234375 70.75 C -14.203125 73.207031 -14.164062 75.660156 -14.125 78.109375 C -14.082031 80.566406 -13.925781 83.039062 -13.65625 85.53125 C -13.507812 86.769531 -13.414062 88.023438 -13.375 89.296875 C -13.332031 90.566406 -12.984375 91.75 -12.328125 92.84375 C -12.191406 93.019531 -12.09375 93.210938 -12.03125 93.421875 C -11.976562 93.640625 -11.898438 93.878906 -11.796875 94.140625 C -11.617188 94.597656 -11.363281 95.023438 -11.03125 95.421875 C -10.675781 95.859375 -10.320312 96.003906 -9.96875 95.859375 Z M -9.96875 95.859375 "/></g></g></g><g fill="#a7ab77" fill-opacity="1"><g transform="translate(235.037232, 201.611332)"><g><path d="M -0.65625 -6.09375 C -0.863281 -6.007812 -1.050781 -5.945312 -1.21875 -5.90625 C -1.382812 -5.875 -1.578125 -5.835938 -1.796875 -5.796875 C -4.378906 -5.367188 -6.269531 -6.648438 -7.46875 -9.640625 C -7.644531 -10.085938 -7.78125 -10.539062 -7.875 -11 C -7.96875 -11.46875 -8.066406 -11.914062 -8.171875 -12.34375 C -8.890625 -15.894531 -8.914062 -19.300781 -8.25 -22.5625 C -7.582031 -25.820312 -6.316406 -28.96875 -4.453125 -32 C -3.910156 -32.863281 -3.300781 -33.664062 -2.625 -34.40625 C -1.957031 -35.144531 -1.238281 -35.816406 -0.46875 -36.421875 C 0.03125 -36.785156 0.53125 -37.066406 1.03125 -37.265625 C 2.34375 -37.796875 3.507812 -37.851562 4.53125 -37.4375 C 5.550781 -37.019531 6.273438 -36.28125 6.703125 -35.21875 C 6.898438 -34.707031 7.066406 -34.195312 7.203125 -33.6875 C 7.347656 -33.1875 7.40625 -32.691406 7.375 -32.203125 C 7.363281 -31.628906 7.335938 -31.019531 7.296875 -30.375 C 7.253906 -29.738281 7.195312 -29.140625 7.125 -28.578125 C 6.25 -22.835938 4.453125 -17.25 1.734375 -11.8125 C 1.515625 -11.3125 1.21875 -10.796875 0.84375 -10.265625 C 0.46875 -9.734375 0.132812 -9.175781 -0.15625 -8.59375 L 0.359375 -8.34375 C 0.648438 -8.226562 0.835938 -8.066406 0.921875 -7.859375 C 1.066406 -7.503906 0.96875 -7.171875 0.625 -6.859375 C 0.320312 -6.566406 -0.101562 -6.3125 -0.65625 -6.09375 Z M -2.46875 -10.140625 L -2.125 -10.4375 C -1.78125 -10.75 -1.515625 -11.101562 -1.328125 -11.5 C -1.140625 -11.90625 -0.925781 -12.273438 -0.6875 -12.609375 C 0.875 -15.171875 2.0625 -17.890625 2.875 -20.765625 C 3.695312 -23.648438 4.285156 -26.578125 4.640625 -29.546875 C 4.734375 -30.054688 4.796875 -30.566406 4.828125 -31.078125 C 4.859375 -31.585938 4.8125 -32.078125 4.6875 -32.546875 C 4.625 -32.828125 4.570312 -33.085938 4.53125 -33.328125 C 4.5 -33.578125 4.429688 -33.832031 4.328125 -34.09375 L 4.234375 -34.3125 C 3.910156 -35.125 3.316406 -35.359375 2.453125 -35.015625 C 1.992188 -34.828125 1.582031 -34.601562 1.21875 -34.34375 C 0.851562 -34.082031 0.492188 -33.800781 0.140625 -33.5 C -0.328125 -33.070312 -0.742188 -32.585938 -1.109375 -32.046875 C -1.484375 -31.515625 -1.863281 -30.972656 -2.25 -30.421875 C -3.820312 -28.023438 -4.753906 -25.460938 -5.046875 -22.734375 C -5.335938 -20.003906 -5.59375 -17.210938 -5.8125 -14.359375 C -5.832031 -14.285156 -5.8125 -14.203125 -5.75 -14.109375 C -5.6875 -14.015625 -5.632812 -13.859375 -5.59375 -13.640625 C -5.476562 -14.222656 -5.375 -14.796875 -5.28125 -15.359375 C -5.1875 -15.929688 -5.101562 -16.429688 -5.03125 -16.859375 C -4.84375 -18.003906 -4.515625 -19.109375 -4.046875 -20.171875 C -3.585938 -21.234375 -3.265625 -22.332031 -3.078125 -23.46875 C -2.960938 -24.039062 -2.734375 -24.484375 -2.390625 -24.796875 C -2.304688 -24.898438 -2.171875 -25.015625 -1.984375 -25.140625 C -1.796875 -25.265625 -1.601562 -25.367188 -1.40625 -25.453125 C -0.539062 -25.796875 0.0507812 -25.5625 0.375 -24.75 C 0.632812 -24.09375 0.597656 -23.375 0.265625 -22.59375 L -1.03125 -19.4375 C -1.15625 -19.15625 -1.28125 -18.878906 -1.40625 -18.609375 C -1.539062 -18.347656 -1.613281 -18.070312 -1.625 -17.78125 C -1.9375 -16.664062 -2.164062 -15.546875 -2.3125 -14.421875 C -2.457031 -13.304688 -2.578125 -12.140625 -2.671875 -10.921875 C -2.691406 -10.804688 -2.71875 -10.679688 -2.75 -10.546875 C -2.78125 -10.421875 -2.6875 -10.285156 -2.46875 -10.140625 Z M -2.46875 -10.140625 "/></g></g></g><g fill="#a7ab77" fill-opacity="1"><g transform="translate(262.515074, 190.666545)"><g><path d="M -5.921875 27.84375 C -6.640625 28.132812 -7.195312 27.921875 -7.59375 27.203125 L -7.65625 27.046875 C -7.757812 26.796875 -7.859375 26.507812 -7.953125 26.1875 C -8.054688 25.875 -8.101562 25.570312 -8.09375 25.28125 C -8.082031 24.445312 -8.109375 23.617188 -8.171875 22.796875 C -8.234375 21.972656 -8.253906 21.140625 -8.234375 20.296875 C -8.148438 14.328125 -7.914062 8.382812 -7.53125 2.46875 C -7.144531 -3.4375 -6.691406 -9.347656 -6.171875 -15.265625 L -5.984375 -17.453125 C -6.046875 -17.429688 -6.085938 -17.425781 -6.109375 -17.4375 C -6.140625 -17.457031 -6.179688 -17.460938 -6.234375 -17.453125 L -6.765625 -16.09375 C -6.828125 -15.957031 -6.910156 -15.835938 -7.015625 -15.734375 C -7.128906 -15.628906 -7.210938 -15.507812 -7.265625 -15.375 C -7.296875 -15.289062 -7.410156 -15.207031 -7.609375 -15.125 C -7.867188 -15.019531 -8.207031 -15.066406 -8.625 -15.265625 C -8.769531 -15.316406 -8.925781 -15.546875 -9.09375 -15.953125 C -9.269531 -16.410156 -9.363281 -16.914062 -9.375 -17.46875 C -9.394531 -18.019531 -9.238281 -18.394531 -8.90625 -18.59375 C -8.582031 -18.84375 -8.351562 -19.125 -8.21875 -19.4375 C -8.082031 -19.75 -7.953125 -20.050781 -7.828125 -20.34375 L -4.609375 -30.625 C -4.515625 -30.957031 -4.414062 -31.300781 -4.3125 -31.65625 C -4.21875 -32.019531 -4.148438 -32.359375 -4.109375 -32.671875 C -2.992188 -40.347656 -1.78125 -48.003906 -0.46875 -55.640625 C 0.84375 -63.273438 2.257812 -70.863281 3.78125 -78.40625 C 4.695312 -82.894531 5.613281 -87.378906 6.53125 -91.859375 C 7.457031 -96.335938 8.40625 -100.828125 9.375 -105.328125 C 10.039062 -108.367188 10.789062 -111.359375 11.625 -114.296875 C 12.457031 -117.242188 13.394531 -120.128906 14.4375 -122.953125 C 14.84375 -124.003906 15.269531 -125 15.71875 -125.9375 C 16.175781 -126.882812 16.582031 -127.867188 16.9375 -128.890625 C 17.082031 -129.242188 17.265625 -129.582031 17.484375 -129.90625 C 17.703125 -130.238281 17.9375 -130.539062 18.1875 -130.8125 C 18.351562 -131 18.535156 -131.132812 18.734375 -131.21875 C 19.035156 -131.34375 19.390625 -131.332031 19.796875 -131.1875 C 20.210938 -131.050781 20.503906 -130.78125 20.671875 -130.375 C 20.867188 -129.875 20.96875 -129.390625 20.96875 -128.921875 C 20.988281 -128.273438 21.003906 -127.632812 21.015625 -127 C 21.035156 -126.363281 21.035156 -125.710938 21.015625 -125.046875 C 20.984375 -123.210938 20.832031 -121.40625 20.5625 -119.625 C 20.300781 -117.851562 20 -116.078125 19.65625 -114.296875 C 19.050781 -111.222656 18.394531 -108.175781 17.6875 -105.15625 C 16.988281 -102.144531 16.265625 -99.140625 15.515625 -96.140625 C 12.878906 -85.628906 10.144531 -75.101562 7.3125 -64.5625 C 4.476562 -54.03125 1.566406 -43.519531 -1.421875 -33.03125 C -1.796875 -31.757812 -2.101562 -30.457031 -2.34375 -29.125 C -2.582031 -27.800781 -2.789062 -26.488281 -2.96875 -25.1875 C -3.988281 -17.84375 -4.742188 -10.5 -5.234375 -3.15625 C -5.722656 4.175781 -5.96875 11.519531 -5.96875 18.875 C -5.976562 19.757812 -5.988281 20.628906 -6 21.484375 C -6.007812 22.335938 -5.988281 23.195312 -5.9375 24.0625 C -5.894531 24.457031 -5.828125 24.8125 -5.734375 25.125 C -5.640625 25.4375 -5.519531 25.769531 -5.375 26.125 L -5.265625 26.421875 C -4.992188 27.085938 -5.191406 27.554688 -5.859375 27.828125 Z M 0.875 -50.703125 L 1.90625 -53.671875 C 4.15625 -61.160156 6.203125 -68.710938 8.046875 -76.328125 C 9.898438 -83.941406 11.828125 -91.5 13.828125 -99 C 14.523438 -101.5625 15.175781 -104.140625 15.78125 -106.734375 C 16.382812 -109.335938 16.910156 -111.929688 17.359375 -114.515625 C 17.671875 -116.222656 17.984375 -117.9375 18.296875 -119.65625 C 18.617188 -121.382812 18.765625 -123.09375 18.734375 -124.78125 L 18.78125 -126.71875 C 18.476562 -126.550781 18.265625 -126.320312 18.140625 -126.03125 C 17.847656 -125.320312 17.566406 -124.632812 17.296875 -123.96875 C 17.023438 -123.300781 16.765625 -122.625 16.515625 -121.9375 C 15.472656 -119.101562 14.5625 -116.222656 13.78125 -113.296875 C 13.007812 -110.378906 12.285156 -107.40625 11.609375 -104.375 C 10.390625 -98.726562 9.179688 -93.085938 7.984375 -87.453125 C 6.785156 -81.828125 5.613281 -76.171875 4.46875 -70.484375 C 3.914062 -67.742188 3.421875 -65.003906 2.984375 -62.265625 C 2.546875 -59.523438 2.019531 -56.769531 1.40625 -54 C 1.375 -53.820312 1.316406 -53.460938 1.234375 -52.921875 C 1.160156 -52.390625 1.082031 -51.882812 1 -51.40625 C 0.914062 -50.9375 0.875 -50.703125 0.875 -50.703125 Z M 0.875 -50.703125 "/></g></g></g><g fill="#a7ab77" fill-opacity="1"><g transform="translate(284.588681, 181.874335)"><g><path d="M -3.59375 -36.5 C -4.175781 -36.613281 -4.507812 -37.003906 -4.59375 -37.671875 C -4.707031 -38.222656 -4.765625 -38.769531 -4.765625 -39.3125 C -4.773438 -39.863281 -4.710938 -40.40625 -4.578125 -40.9375 C -4.410156 -41.550781 -4.0625 -42.015625 -3.53125 -42.328125 C -3.082031 -42.640625 -2.609375 -42.625 -2.109375 -42.28125 C -1.617188 -41.945312 -1.398438 -41.535156 -1.453125 -41.046875 C -1.484375 -39.796875 -1.785156 -38.492188 -2.359375 -37.140625 C -2.609375 -36.585938 -3.019531 -36.375 -3.59375 -36.5 Z M 0.546875 -9.03125 C 0.0351562 -8.832031 -0.46875 -8.660156 -0.96875 -8.515625 C -1.476562 -8.378906 -1.988281 -8.296875 -2.5 -8.265625 C -5.132812 -8.085938 -6.945312 -9.242188 -7.9375 -11.734375 C -8.15625 -12.296875 -8.300781 -12.859375 -8.375 -13.421875 C -8.457031 -13.984375 -8.519531 -14.546875 -8.5625 -15.109375 C -8.59375 -15.617188 -8.609375 -16.125 -8.609375 -16.625 C -8.609375 -17.132812 -8.585938 -17.632812 -8.546875 -18.125 C -8.453125 -19.507812 -8.234375 -20.867188 -7.890625 -22.203125 C -7.546875 -23.546875 -7.265625 -24.914062 -7.046875 -26.3125 C -7.015625 -26.5625 -6.953125 -26.785156 -6.859375 -26.984375 C -6.773438 -27.191406 -6.691406 -27.40625 -6.609375 -27.625 C -6.441406 -27.976562 -6.179688 -28.222656 -5.828125 -28.359375 C -5.722656 -28.398438 -5.609375 -28.414062 -5.484375 -28.40625 C -5.359375 -28.394531 -5.238281 -28.390625 -5.125 -28.390625 C -4.800781 -28.460938 -4.546875 -28.269531 -4.359375 -27.8125 C -4.273438 -27.613281 -4.253906 -27.328125 -4.296875 -26.953125 L -4.375 -26.484375 C -4.582031 -25.210938 -4.789062 -24.039062 -5 -22.96875 L -5.0625 -22.671875 C -5.59375 -21.640625 -5.882812 -20.566406 -5.9375 -19.453125 C -5.988281 -18.347656 -6.023438 -17.234375 -6.046875 -16.109375 C -6.054688 -15.523438 -6.015625 -14.9375 -5.921875 -14.34375 C -5.835938 -13.757812 -5.6875 -13.1875 -5.46875 -12.625 C -5.164062 -11.863281 -4.707031 -11.3125 -4.09375 -10.96875 C -3.488281 -10.625 -2.78125 -10.617188 -1.96875 -10.953125 C -1.71875 -11.046875 -1.445312 -11.132812 -1.15625 -11.21875 C -0.875 -11.300781 -0.601562 -11.394531 -0.34375 -11.5 C 0.207031 -11.71875 0.769531 -11.988281 1.34375 -12.3125 C 1.925781 -12.632812 2.457031 -13.003906 2.9375 -13.421875 C 4.488281 -14.691406 5.898438 -15.960938 7.171875 -17.234375 C 8.640625 -18.691406 10.007812 -20.21875 11.28125 -21.8125 C 12.5625 -23.40625 13.875 -24.945312 15.21875 -26.4375 C 15.46875 -26.707031 15.703125 -27.003906 15.921875 -27.328125 C 16.148438 -27.660156 16.304688 -28.019531 16.390625 -28.40625 C 16.546875 -28.875 16.78125 -29.171875 17.09375 -29.296875 C 17.1875 -29.328125 17.304688 -29.34375 17.453125 -29.34375 C 17.597656 -29.351562 17.769531 -29.335938 17.96875 -29.296875 C 18.332031 -29.265625 18.625 -28.96875 18.84375 -28.40625 C 18.863281 -28.351562 18.910156 -28.269531 18.984375 -28.15625 C 19.066406 -28.039062 19.078125 -27.914062 19.015625 -27.78125 C 18.953125 -27.332031 18.835938 -27.019531 18.671875 -26.84375 C 18.535156 -26.601562 18.421875 -26.378906 18.328125 -26.171875 C 18.234375 -25.960938 18.082031 -25.753906 17.875 -25.546875 C 15.976562 -23.503906 14.164062 -21.375 12.4375 -19.15625 C 10.707031 -16.9375 8.785156 -14.9375 6.671875 -13.15625 C 6.097656 -12.6875 5.5 -12.195312 4.875 -11.6875 C 4.25 -11.175781 3.601562 -10.722656 2.9375 -10.328125 Z M 0.546875 -9.03125 "/></g></g></g><g fill="#a7ab77" fill-opacity="1"><g transform="translate(309.706924, 171.869407)"><g><path d="M -0.65625 -6.09375 C -0.863281 -6.007812 -1.050781 -5.945312 -1.21875 -5.90625 C -1.382812 -5.875 -1.578125 -5.835938 -1.796875 -5.796875 C -4.378906 -5.367188 -6.269531 -6.648438 -7.46875 -9.640625 C -7.644531 -10.085938 -7.78125 -10.539062 -7.875 -11 C -7.96875 -11.46875 -8.066406 -11.914062 -8.171875 -12.34375 C -8.890625 -15.894531 -8.914062 -19.300781 -8.25 -22.5625 C -7.582031 -25.820312 -6.316406 -28.96875 -4.453125 -32 C -3.910156 -32.863281 -3.300781 -33.664062 -2.625 -34.40625 C -1.957031 -35.144531 -1.238281 -35.816406 -0.46875 -36.421875 C 0.03125 -36.785156 0.53125 -37.066406 1.03125 -37.265625 C 2.34375 -37.796875 3.507812 -37.851562 4.53125 -37.4375 C 5.550781 -37.019531 6.273438 -36.28125 6.703125 -35.21875 C 6.898438 -34.707031 7.066406 -34.195312 7.203125 -33.6875 C 7.347656 -33.1875 7.40625 -32.691406 7.375 -32.203125 C 7.363281 -31.628906 7.335938 -31.019531 7.296875 -30.375 C 7.253906 -29.738281 7.195312 -29.140625 7.125 -28.578125 C 6.25 -22.835938 4.453125 -17.25 1.734375 -11.8125 C 1.515625 -11.3125 1.21875 -10.796875 0.84375 -10.265625 C 0.46875 -9.734375 0.132812 -9.175781 -0.15625 -8.59375 L 0.359375 -8.34375 C 0.648438 -8.226562 0.835938 -8.066406 0.921875 -7.859375 C 1.066406 -7.503906 0.96875 -7.171875 0.625 -6.859375 C 0.320312 -6.566406 -0.101562 -6.3125 -0.65625 -6.09375 Z M -2.46875 -10.140625 L -2.125 -10.4375 C -1.78125 -10.75 -1.515625 -11.101562 -1.328125 -11.5 C -1.140625 -11.90625 -0.925781 -12.273438 -0.6875 -12.609375 C 0.875 -15.171875 2.0625 -17.890625 2.875 -20.765625 C 3.695312 -23.648438 4.285156 -26.578125 4.640625 -29.546875 C 4.734375 -30.054688 4.796875 -30.566406 4.828125 -31.078125 C 4.859375 -31.585938 4.8125 -32.078125 4.6875 -32.546875 C 4.625 -32.828125 4.570312 -33.085938 4.53125 -33.328125 C 4.5 -33.578125 4.429688 -33.832031 4.328125 -34.09375 L 4.234375 -34.3125 C 3.910156 -35.125 3.316406 -35.359375 2.453125 -35.015625 C 1.992188 -34.828125 1.582031 -34.601562 1.21875 -34.34375 C 0.851562 -34.082031 0.492188 -33.800781 0.140625 -33.5 C -0.328125 -33.070312 -0.742188 -32.585938 -1.109375 -32.046875 C -1.484375 -31.515625 -1.863281 -30.972656 -2.25 -30.421875 C -3.820312 -28.023438 -4.753906 -25.460938 -5.046875 -22.734375 C -5.335938 -20.003906 -5.59375 -17.210938 -5.8125 -14.359375 C -5.832031 -14.285156 -5.8125 -14.203125 -5.75 -14.109375 C -5.6875 -14.015625 -5.632812 -13.859375 -5.59375 -13.640625 C -5.476562 -14.222656 -5.375 -14.796875 -5.28125 -15.359375 C -5.1875 -15.929688 -5.101562 -16.429688 -5.03125 -16.859375 C -4.84375 -18.003906 -4.515625 -19.109375 -4.046875 -20.171875 C -3.585938 -21.234375 -3.265625 -22.332031 -3.078125 -23.46875 C -2.960938 -24.039062 -2.734375 -24.484375 -2.390625 -24.796875 C -2.304688 -24.898438 -2.171875 -25.015625 -1.984375 -25.140625 C -1.796875 -25.265625 -1.601562 -25.367188 -1.40625 -25.453125 C -0.539062 -25.796875 0.0507812 -25.5625 0.375 -24.75 C 0.632812 -24.09375 0.597656 -23.375 0.265625 -22.59375 L -1.03125 -19.4375 C -1.15625 -19.15625 -1.28125 -18.878906 -1.40625 -18.609375 C -1.539062 -18.347656 -1.613281 -18.070312 -1.625 -17.78125 C -1.9375 -16.664062 -2.164062 -15.546875 -2.3125 -14.421875 C -2.457031 -13.304688 -2.578125 -12.140625 -2.671875 -10.921875 C -2.691406 -10.804688 -2.71875 -10.679688 -2.75 -10.546875 C -2.78125 -10.421875 -2.6875 -10.285156 -2.46875 -10.140625 Z M -2.46875 -10.140625 "/></g></g></g><g fill="#a7ab77" fill-opacity="1"><g transform="translate(337.184766, 160.924619)"><g/></g></g><g fill="#a7ab77" fill-opacity="1"><g transform="translate(382.854313, 142.733835)"><g><path d="M -0.65625 -6.09375 C -0.863281 -6.007812 -1.050781 -5.945312 -1.21875 -5.90625 C -1.382812 -5.875 -1.578125 -5.835938 -1.796875 -5.796875 C -4.378906 -5.367188 -6.269531 -6.648438 -7.46875 -9.640625 C -7.644531 -10.085938 -7.78125 -10.539062 -7.875 -11 C -7.96875 -11.46875 -8.066406 -11.914062 -8.171875 -12.34375 C -8.890625 -15.894531 -8.914062 -19.300781 -8.25 -22.5625 C -7.582031 -25.820312 -6.316406 -28.96875 -4.453125 -32 C -3.910156 -32.863281 -3.300781 -33.664062 -2.625 -34.40625 C -1.957031 -35.144531 -1.238281 -35.816406 -0.46875 -36.421875 C 0.03125 -36.785156 0.53125 -37.066406 1.03125 -37.265625 C 2.34375 -37.796875 3.507812 -37.851562 4.53125 -37.4375 C 5.550781 -37.019531 6.273438 -36.28125 6.703125 -35.21875 C 6.898438 -34.707031 7.066406 -34.195312 7.203125 -33.6875 C 7.347656 -33.1875 7.40625 -32.691406 7.375 -32.203125 C 7.363281 -31.628906 7.335938 -31.019531 7.296875 -30.375 C 7.253906 -29.738281 7.195312 -29.140625 7.125 -28.578125 C 6.25 -22.835938 4.453125 -17.25 1.734375 -11.8125 C 1.515625 -11.3125 1.21875 -10.796875 0.84375 -10.265625 C 0.46875 -9.734375 0.132812 -9.175781 -0.15625 -8.59375 L 0.359375 -8.34375 C 0.648438 -8.226562 0.835938 -8.066406 0.921875 -7.859375 C 1.066406 -7.503906 0.96875 -7.171875 0.625 -6.859375 C 0.320312 -6.566406 -0.101562 -6.3125 -0.65625 -6.09375 Z M -2.46875 -10.140625 L -2.125 -10.4375 C -1.78125 -10.75 -1.515625 -11.101562 -1.328125 -11.5 C -1.140625 -11.90625 -0.925781 -12.273438 -0.6875 -12.609375 C 0.875 -15.171875 2.0625 -17.890625 2.875 -20.765625 C 3.695312 -23.648438 4.285156 -26.578125 4.640625 -29.546875 C 4.734375 -30.054688 4.796875 -30.566406 4.828125 -31.078125 C 4.859375 -31.585938 4.8125 -32.078125 4.6875 -32.546875 C 4.625 -32.828125 4.570312 -33.085938 4.53125 -33.328125 C 4.5 -33.578125 4.429688 -33.832031 4.328125 -34.09375 L 4.234375 -34.3125 C 3.910156 -35.125 3.316406 -35.359375 2.453125 -35.015625 C 1.992188 -34.828125 1.582031 -34.601562 1.21875 -34.34375 C 0.851562 -34.082031 0.492188 -33.800781 0.140625 -33.5 C -0.328125 -33.070312 -0.742188 -32.585938 -1.109375 -32.046875 C -1.484375 -31.515625 -1.863281 -30.972656 -2.25 -30.421875 C -3.820312 -28.023438 -4.753906 -25.460938 -5.046875 -22.734375 C -5.335938 -20.003906 -5.59375 -17.210938 -5.8125 -14.359375 C -5.832031 -14.285156 -5.8125 -14.203125 -5.75 -14.109375 C -5.6875 -14.015625 -5.632812 -13.859375 -5.59375 -13.640625 C -5.476562 -14.222656 -5.375 -14.796875 -5.28125 -15.359375 C -5.1875 -15.929688 -5.101562 -16.429688 -5.03125 -16.859375 C -4.84375 -18.003906 -4.515625 -19.109375 -4.046875 -20.171875 C -3.585938 -21.234375 -3.265625 -22.332031 -3.078125 -23.46875 C -2.960938 -24.039062 -2.734375 -24.484375 -2.390625 -24.796875 C -2.304688 -24.898438 -2.171875 -25.015625 -1.984375 -25.140625 C -1.796875 -25.265625 -1.601562 -25.367188 -1.40625 -25.453125 C -0.539062 -25.796875 0.0507812 -25.5625 0.375 -24.75 C 0.632812 -24.09375 0.597656 -23.375 0.265625 -22.59375 L -1.03125 -19.4375 C -1.15625 -19.15625 -1.28125 -18.878906 -1.40625 -18.609375 C -1.539062 -18.347656 -1.613281 -18.070312 -1.625 -17.78125 C -1.9375 -16.664062 -2.164062 -15.546875 -2.3125 -14.421875 C -2.457031 -13.304688 -2.578125 -12.140625 -2.671875 -10.921875 C -2.691406 -10.804688 -2.71875 -10.679688 -2.75 -10.546875 C -2.78125 -10.421875 -2.6875 -10.285156 -2.46875 -10.140625 Z M -2.46875 -10.140625 "/></g></g></g><g fill="#a7ab77" fill-opacity="1"><g transform="translate(410.332141, 131.789053)"><g><path d="M -9.078125 98.34375 C -10.347656 98.84375 -11.519531 98.546875 -12.59375 97.453125 C -12.800781 97.242188 -12.992188 96.984375 -13.171875 96.671875 C -13.347656 96.359375 -13.53125 96.0625 -13.71875 95.78125 C -14.21875 94.800781 -14.609375 93.765625 -14.890625 92.671875 C -15.179688 91.578125 -15.429688 90.484375 -15.640625 89.390625 C -15.960938 87.398438 -16.175781 85.382812 -16.28125 83.34375 C -16.394531 81.300781 -16.472656 79.265625 -16.515625 77.234375 C -16.617188 71.390625 -16.570312 65.53125 -16.375 59.65625 C -16.1875 53.789062 -15.816406 47.929688 -15.265625 42.078125 C -14.898438 38.265625 -14.59375 34.441406 -14.34375 30.609375 C -14.101562 26.785156 -13.660156 22.957031 -13.015625 19.125 C -12.878906 18.289062 -12.992188 17.421875 -13.359375 16.515625 C -13.578125 15.953125 -13.769531 15.425781 -13.9375 14.9375 C -14.101562 14.457031 -14.363281 13.992188 -14.71875 13.546875 C -14.875 13.296875 -15.035156 13.070312 -15.203125 12.875 C -15.367188 12.6875 -15.617188 12.539062 -15.953125 12.4375 C -16.453125 12.226562 -16.742188 12.019531 -16.828125 11.8125 C -16.941406 11.519531 -16.78125 11.101562 -16.34375 10.5625 C -15.644531 9.644531 -14.9375 8.71875 -14.21875 7.78125 C -13.507812 6.84375 -12.773438 5.988281 -12.015625 5.21875 C -11.691406 4.863281 -11.4375 4.472656 -11.25 4.046875 C -11.070312 3.617188 -10.941406 3.148438 -10.859375 2.640625 L -4.046875 -43.375 C -3.660156 -45.9375 -3.179688 -48.535156 -2.609375 -51.171875 C -2.035156 -53.804688 -1.46875 -56.410156 -0.90625 -58.984375 C -0.800781 -59.453125 -0.679688 -59.882812 -0.546875 -60.28125 C -0.421875 -60.6875 -0.304688 -61.117188 -0.203125 -61.578125 C -0.015625 -62.171875 0.226562 -62.679688 0.53125 -63.109375 C 0.726562 -63.347656 0.984375 -63.53125 1.296875 -63.65625 C 2.359375 -64.082031 3.097656 -63.765625 3.515625 -62.703125 C 3.578125 -62.546875 3.640625 -62.390625 3.703125 -62.234375 C 3.765625 -62.085938 3.800781 -61.929688 3.8125 -61.765625 C 4.113281 -59.359375 4.15625 -57.023438 3.9375 -54.765625 C 3.925781 -54.515625 3.890625 -54.234375 3.828125 -53.921875 C 3.773438 -53.609375 3.664062 -53.296875 3.5 -52.984375 C 3.289062 -52.617188 3.003906 -52.300781 2.640625 -52.03125 C 2.191406 -51.675781 1.644531 -51.804688 1 -52.421875 L 0.578125 -52.796875 C 0.378906 -52.253906 0.210938 -51.628906 0.078125 -50.921875 C -1.234375 -44.816406 -2.40625 -38.660156 -3.4375 -32.453125 C -4.46875 -26.253906 -5.421875 -20.039062 -6.296875 -13.8125 L -8.046875 -1.5625 C -8.109375 -1.289062 -8.140625 -1.007812 -8.140625 -0.71875 C -8.140625 -0.425781 -8.164062 -0.128906 -8.21875 0.171875 C -8.09375 0.191406 -7.957031 0.175781 -7.8125 0.125 C -7.707031 0.0820312 -7.601562 0 -7.5 -0.125 C -7.40625 -0.257812 -7.347656 -0.363281 -7.328125 -0.4375 C -4.765625 -3.332031 -2.238281 -6.257812 0.25 -9.21875 C 2.738281 -12.1875 5.203125 -15.1875 7.640625 -18.21875 C 8.929688 -19.851562 10.210938 -21.507812 11.484375 -23.1875 C 12.753906 -24.863281 14.128906 -26.4375 15.609375 -27.90625 C 15.816406 -28.125 16.035156 -28.347656 16.265625 -28.578125 C 16.492188 -28.816406 16.703125 -29.066406 16.890625 -29.328125 C 16.984375 -29.410156 17.15625 -29.5 17.40625 -29.59375 C 17.65625 -29.695312 17.925781 -29.75 18.21875 -29.75 C 18.507812 -29.75 18.71875 -29.59375 18.84375 -29.28125 L 18.984375 -28.90625 C 19.191406 -28.40625 19.109375 -27.898438 18.734375 -27.390625 C 18.285156 -26.867188 17.828125 -26.347656 17.359375 -25.828125 C 16.890625 -25.316406 16.445312 -24.835938 16.03125 -24.390625 C 15.15625 -23.335938 14.269531 -22.304688 13.375 -21.296875 C 12.488281 -20.296875 11.59375 -19.234375 10.6875 -18.109375 C 8.007812 -14.804688 5.3125 -11.539062 2.59375 -8.3125 C -0.113281 -5.082031 -2.84375 -1.832031 -5.59375 1.4375 L -8.296875 4.625 C -8.753906 5.113281 -9.023438 5.691406 -9.109375 6.359375 L -10.390625 15.96875 C -10.460938 16.394531 -10.460938 16.769531 -10.390625 17.09375 C -10.316406 17.414062 -10.210938 17.753906 -10.078125 18.109375 L -6.71875 25.4375 C -5.039062 29.0625 -3.71875 32.78125 -2.75 36.59375 C -1.78125 40.414062 -1.085938 44.328125 -0.671875 48.328125 C -0.128906 53.992188 0.0507812 59.671875 -0.125 65.359375 C -0.300781 71.046875 -0.941406 76.695312 -2.046875 82.3125 C -2.335938 83.78125 -2.664062 85.234375 -3.03125 86.671875 C -3.40625 88.117188 -3.847656 89.535156 -4.359375 90.921875 C -4.617188 91.597656 -4.90625 92.28125 -5.21875 92.96875 C -5.53125 93.65625 -5.84375 94.347656 -6.15625 95.046875 C -6.375 95.546875 -6.625 96.015625 -6.90625 96.453125 C -7.195312 96.898438 -7.546875 97.289062 -7.953125 97.625 C -8.347656 97.957031 -8.722656 98.195312 -9.078125 98.34375 Z M -12.203125 12.546875 C -12.128906 11.984375 -12.054688 11.460938 -11.984375 10.984375 C -11.910156 10.515625 -11.921875 10.003906 -12.015625 9.453125 L -12.328125 9.578125 C -12.578125 9.679688 -12.765625 9.832031 -12.890625 10.03125 C -13.023438 10.226562 -13.140625 10.410156 -13.234375 10.578125 C -13.222656 10.796875 -13.191406 11 -13.140625 11.1875 C -13.097656 11.375 -13.054688 11.519531 -13.015625 11.625 C -12.921875 11.875 -12.648438 12.179688 -12.203125 12.546875 Z M -9.96875 95.859375 C -9.71875 95.765625 -9.523438 95.660156 -9.390625 95.546875 C -8.992188 95.210938 -8.65625 94.726562 -8.375 94.09375 C -8.039062 93.320312 -7.710938 92.5625 -7.390625 91.8125 C -7.078125 91.0625 -6.789062 90.28125 -6.53125 89.46875 C -5.96875 87.90625 -5.507812 86.347656 -5.15625 84.796875 C -4.8125 83.242188 -4.507812 81.679688 -4.25 80.109375 C -3.445312 75.203125 -2.914062 70.300781 -2.65625 65.40625 C -2.40625 60.507812 -2.457031 55.628906 -2.8125 50.765625 C -3.125 46.546875 -3.789062 42.445312 -4.8125 38.46875 C -5.832031 34.5 -7.132812 30.535156 -8.71875 26.578125 C -9 25.878906 -9.304688 25.148438 -9.640625 24.390625 C -9.972656 23.640625 -10.304688 22.921875 -10.640625 22.234375 L -10.96875 22.28125 C -11.03125 22.414062 -11.097656 22.675781 -11.171875 23.0625 C -11.554688 28.726562 -12.007812 34.191406 -12.53125 39.453125 C -13.0625 44.722656 -13.5 49.910156 -13.84375 55.015625 C -14.1875 60.128906 -14.316406 65.375 -14.234375 70.75 C -14.203125 73.207031 -14.164062 75.660156 -14.125 78.109375 C -14.082031 80.566406 -13.925781 83.039062 -13.65625 85.53125 C -13.507812 86.769531 -13.414062 88.023438 -13.375 89.296875 C -13.332031 90.566406 -12.984375 91.75 -12.328125 92.84375 C -12.191406 93.019531 -12.09375 93.210938 -12.03125 93.421875 C -11.976562 93.640625 -11.898438 93.878906 -11.796875 94.140625 C -11.617188 94.597656 -11.363281 95.023438 -11.03125 95.421875 C -10.675781 95.859375 -10.320312 96.003906 -9.96875 95.859375 Z M -9.96875 95.859375 "/></g></g></g></g></g></svg>